<svg xmlns="http://www.w3.org/2000/svg" version="1.1" xmlns:xlink="http://www.w3.org/1999/xlink" xmlns:svgjs="http://svgjs.dev/svgjs" width="1500" height="1682" viewBox="0 0 1500 1682"><g transform="matrix(1,0,0,1,-2.3362757009347206,0)"><svg viewBox="0 0 321 360" data-background-color="#dce2f7" preserveAspectRatio="xMidYMid meet" height="1682" width="1500" xmlns="http://www.w3.org/2000/svg" xmlns:xlink="http://www.w3.org/1999/xlink"><g id="tight-bounds" transform="matrix(1,0,0,1,0.4999630000000366,0)"><svg viewBox="0 0 320 360" height="360" width="320"><g><svg></svg></g><g><svg viewBox="0 0 320 360" height="360" width="320"><g><path transform="translate(-29.57346,-9.38389) scale(3.79147,3.79147)" d="M50 13.6c19.1 0 34.8 14.8 36.3 33.5h5.9c-0.3-4.7-1.4-9.2-3.2-13.5-2.1-5-5.2-9.6-9.1-13.4-3.9-3.9-8.4-6.9-13.4-9.1-5.3-2.2-10.8-3.4-16.5-3.4-5.7 0-11.2 1.1-16.5 3.3-5 2.1-9.6 5.2-13.4 9.1-3.9 3.9-6.9 8.4-9.1 13.4-1.8 4.3-2.9 8.9-3.2 13.5h5.9c1.5-18.6 17.2-33.4 36.3-33.4zM50 86.4c-19.1 0-34.8-14.8-36.3-33.5h-5.9c0.3 4.7 1.4 9.2 3.2 13.5 2.1 5 5.2 9.6 9.1 13.4 3.9 3.9 8.4 6.9 13.4 9.1 5.2 2.2 10.7 3.3 16.5 3.3 5.8 0 11.2-1.1 16.5-3.3 5-2.1 9.6-5.2 13.4-9.1 3.9-3.9 6.9-8.4 9.1-13.4 1.8-4.3 2.9-8.9 3.2-13.5h-5.9c-1.5 18.7-17.2 33.5-36.3 33.5z" fill="#bbb3db" fill-rule="nonzero" stroke="none" stroke-width="1" stroke-linecap="butt" stroke-linejoin="miter" stroke-miterlimit="10" stroke-dasharray="" stroke-dashoffset="0" font-family="none" font-weight="none" font-size="none" text-anchor="none" style="mix-blend-mode: normal" data-fill-palette-color="tertiary"></path></g><g transform="matrix(1,0,0,1,56,144.76020515486505)"><svg viewBox="0 0 208 70.47958969026992" height="70.47958969026992" width="208"><g><svg viewBox="0 0 332.8885849521204 112.79736000000003" height="70.47958969026992" width="208"><g transform="matrix(1,0,0,1,0,30.789924870041055)"><svg viewBox="0 0 208 51.217510259917916" height="51.217510259917916" width="208"><g id="textblocktransform"><svg viewBox="0 0 208 51.217510259917916" height="51.217510259917916" width="208" id="textblock"><g><svg viewBox="0 0 208 51.217510259917916" height="51.217510259917916" width="208"><g transform="matrix(1,0,0,1,0,0)"><svg width="208" viewBox="-0.35 -35.5 146.19 36" height="51.217510259917916" data-palette-color="#a36de5"><path d="M26.2-15.95L25.9-15.2 34.55-15.2 34.35-14.7 31.7-14.7 31.6-14.45 26.1-14.45 25.8-13.7 27.05-13.7 26.95-13.45 26.45-13.45 26.25-12.95 25.85-12.95 25.75-12.7 27.1-12.7 26.85-12.2 22.85-12.2 22.55-11.45 22.85-11.45 22.75-11.2 19.2-11.2 18.8-10.2 26.6-10.2 26.2-9.2 17.8-9.2 17.4-8.2 19.4-8.2 19.3-7.95 24.5-7.95 24.3-7.45 23.75-7.45 23.45-6.7 19.2-6.7 19.1-6.45 22.7-6.45 22.4-5.7 23.5-5.7 23.3-5.2 22.7-5.2 22.3-4.2 22.7-4.2 22.2-2.95 22.15-2.95 22.05-2.7 21.95-2.7 21.75-2.2 21.8-2.2 21.6-1.7 21.95-1.7 21.8-1.45 20.55-1.45 20.5-1.25Q20.45-1.25 20.45-1.23 20.45-1.2 20.45-1.2L20.45-1.2 20.55-1.2 20.25-0.7 21-0.7Q20.8-0.4 20.5-0.2L20.5-0.2 20.1-0.2Q19.95-0.15 19.75-0.08 19.55 0 19.3 0L19.3 0 11.3 0Q11.05 0 10.85-0.08 10.65-0.15 10.45-0.2L10.45-0.2 10.85-0.2Q10.55-0.4 10.3-0.7L10.3-0.7 9.6-0.7Q9.5-0.8 9.45-0.95 9.4-1.1 9.3-1.2L9.3-1.2 9.2-1.2 9.2-1.25 9.1-1.45 10.35-1.45 10.25-1.7 9.9-1.7 9.7-2.2 9.65-2.2 9.45-2.7 9.55-2.7 9.35-3.2 9.4-3.2 9.2-3.7 9.15-3.7 8.95-4.2 8.55-4.2 8.15-5.2 8.7-5.2 8.5-5.7 7.4-5.7 7.1-6.45 3.5-6.45 3.4-6.7 7.6-6.7 7.3-7.45 7.9-7.45 7.65-7.95 2.45-7.95 2.35-8.2 0.35-8.2-0.1-9.2 8.35-9.2 7.9-10.2 0.05-10.2-0.35-11.2 3.2-11.2 3.1-11.45 2.8-11.45 2.5-12.2 6.5-12.2 6.3-12.7 5-12.7 4.9-12.95 5.25-12.95 5.05-13.45 5.25-13.45 5.15-13.7 2.55-13.7 2.25-14.45 3.55-14.45 3.45-14.7 0.4-14.7 0.2-15.2 4.5-15.2 4.2-15.95 3.85-15.95 3.65-16.45 3.9-16.45 3.7-16.95 1.45-16.95 1.35-17.2 4.45-17.2 4.35-17.45 3.25-17.45 3.15-17.7 3.05-17.7 2.65-18.7 3.85-18.7 3.55-19.45 1.3-19.45 1.1-19.95 2.4-19.95 2.2-20.45 2.1-20.45 1.7-21.45 1.55-21.45 1.45-21.7 1.3-21.7 1.2-21.95 1.55-21.95 1.45-22.2 1.7-22.2 1.4-22.95 1.3-22.95 1.2-23.2 0.65-23.2 0.25-24.2 1.25-24.2 1.15-24.45Q1.1-24.55 1.1-24.7L1.1-24.7 1.3-24.7 1.3-24.8Q1.3-25.35 1.75-25.7L1.75-25.7 0.35-25.7Q0.65-26 1.1-26L1.1-26 9.55-26Q10.25-26 10.6-25.7L10.6-25.7 11.95-25.7Q12.2-25.5 12.38-25.28 12.55-25.05 12.6-24.8L12.6-24.8 12.65-24.7 12.4-24.7 12.6-24.2 11.6-24.2 11.95-23.2 12.5-23.2 12.55-22.95 12.65-22.95 12.9-22.2 12.65-22.2 12.75-21.95 12.4-21.95 12.5-21.7 12.65-21.7 12.7-21.45 12.85-21.45 13.2-20.45 13.3-20.45 13.45-19.95 12.15-19.95 12.3-19.45 14.55-19.45 14.8-18.7 13.6-18.7 13.95-17.7 14.05-17.7 14.15-17.45 15.25-17.45 15.35-17.2 12.25-17.2 12.3-16.95 14.55-16.95 14.75-16.45 14.45-16.45 14.65-15.95 14.95-15.95 15.2-15.3 15.4-15.95 16.85-15.95 17-16.45 17.15-16.45 17.3-16.95 16.3-16.95 16.35-17.2 17.8-17.2 17.9-17.45 17.25-17.45 17.3-17.7 16.3-17.7 16.65-18.7 19.5-18.7 19.75-19.45 18.85-19.45 19.05-19.95 18.05-19.95 18.2-20.45 20.7-20.45 21.05-21.45 16.6-21.45 16.7-21.7 18.2-21.7 18.3-21.95 17.5-21.95 17.6-22.2 19.3-22.2 19.55-22.95 19.1-22.95 19.2-23.2 18.75-23.2 19.1-24.2 20.1-24.2 20.25-24.7 20.55-24.7 20.55-24.8Q20.65-25.05 20.8-25.28 20.95-25.5 21.2-25.7L21.2-25.7 20.45-25.7Q20.85-26 21.45-26L21.45-26 29.9-26Q30.35-26 30.7-25.7L30.7-25.7 31.45-25.7Q31.85-25.4 31.85-24.8L31.85-24.8 31.85-24.7 31.6-24.7Q31.6-24.65 31.58-24.6 31.55-24.55 31.55-24.45L31.55-24.45 31.45-24.2 30.45-24.2 30.05-23.2 30.5-23.2 30.4-22.95 30.8-22.95 30.5-22.2 28.8-22.2 28.7-21.95 29.5-21.95 29.4-21.7 27.85-21.7 27.75-21.45 32.2-21.45 31.8-20.45 29.3-20.45 29.1-19.95 30.1-19.95 29.9-19.45 30.8-19.45 30.45-18.7 27.65-18.7 27.2-17.7 28.2-17.7 28.1-17.45 28.8-17.45 28.7-17.2 27.2-17.2 27.1-16.95 28.15-16.95 27.95-16.45 27.8-16.45 27.6-15.95 26.2-15.95ZM20.95-14.45L21-14.7 23.65-14.7 23.85-15.2 10.9-15.2 11.1-14.7 14.1-14.7 14.2-14.45 12.9-14.45 13.15-13.7 15.15-13.7 15.45-14.45 20.95-14.45ZM15.85-13.45L16.35-13.45 16.45-13.7 15.75-13.7 15.85-13.45 15.65-13.45 15.75-13.15 15.85-13.45ZM41.5-2.95L41.5-1.95 47.95-1.95 47.95-1.2 40.95-1.2Q40.85-0.5 40.3-0.2L40.3-0.2 43.2-0.2Q42.95 0 42.5 0L42.5 0 33.8 0Q33.3 0 33.05-0.2L33.05-0.2 30.2-0.2Q29.65-0.5 29.55-1.2L29.55-1.2 36.55-1.2 36.55-1.95 30.1-1.95 30.1-2.95 29.2-2.95 29.2-3.7 36.3-3.7 36.3-4.45 27.1-4.45 27.1-4.7 27.8-4.7 27.8-5.45 33.55-5.45 33.55-5.7 28.85-5.7 28.85-5.95 32.95-5.95 32.95-6.45 32.4-6.45 32.4-7.2 33.6-7.2 33.6-7.45 34.15-7.45 34.15-8.45 34.3-8.45 34.3-8.7 34.65-8.7 34.65-9.7 35.9-9.7 35.9-9.95 33.7-9.95 33.7-10.05Q33.7-10.5 34.05-10.95L34.05-10.95 35.7-10.95Q36.1-11.4 36.7-11.4L36.7-11.4 45.4-11.4Q46.05-11.4 46.4-10.95L46.4-10.95 44.8-10.95Q45.1-10.6 45.1-10.05L45.1-10.05 45.1-9.95 47.3-9.95 47.3-9.7 46.05-9.7 46.05-8.7 45.7-8.7 45.7-8.45 45.55-8.45 45.55-7.45 45-7.45 45-7.2 43.8-7.2 43.8-6.45 44.35-6.45 44.35-5.95 40.25-5.95 40.25-5.7 44.95-5.7 44.95-5.45 39.2-5.45 39.2-4.7 38.5-4.7 38.5-4.45 47.7-4.45 47.7-3.7 40.6-3.7 40.6-2.95 41.5-2.95ZM77.39-8.95L77.39-7.95 75.39-7.95 75.39-7.45 75.55-7.45 75.55-6.95 81.8-6.95 81.8-5.95 79.34-5.95 79.34-5.45 75.94-5.45 75.94-4.7 81.25-4.7 81.25-4.2 78.3-4.2 78.3-3.95 77.89-3.95 77.89-2.95 76.14-2.95 76.14-2.45 77.75-2.45 77.75-1.95 76.3-1.95 76.3-1.35Q76.3-1.25 76.27-1.15 76.25-1.05 76.25-0.95L76.25-0.95 77.44-0.95Q77.44-0.9 77.34-0.7L77.34-0.7 77.75-0.7Q77.39 0 76.59 0L76.59 0 68.09 0Q67.34 0 66.89-0.7L66.89-0.7 66.5-0.7 66.34-0.95 65.14-0.95Q65.09-1.05 65.09-1.2L65.09-1.2 64.69-0.95 65.14-0.95 64.75-0.7 66.3-0.7Q65.5-0.25 64.5 0.05L64.5 0.05 64.25 0.05Q64 0.1 63.72 0.18 63.45 0.25 63.2 0.3L63.2 0.3 62.95 0.3Q62.39 0.4 61.82 0.45 61.24 0.5 60.64 0.5L60.64 0.5Q59.99 0.5 59.39 0.45 58.8 0.4 58.24 0.3L58.24 0.3 58.49 0.3Q58.24 0.25 57.95 0.18 57.64 0.1 57.39 0.05L57.39 0.05 57.64 0.05Q56.59-0.25 55.74-0.7L55.74-0.7 54.2-0.7 53.74-0.95 53.3-0.95Q52.95-1.2 52.62-1.43 52.3-1.65 51.99-1.95L51.99-1.95 53.49-1.95 52.99-2.45 49.89-2.45 49.45-2.95 51.24-2.95Q50.84-3.45 50.55-3.95L50.55-3.95 50.95-3.95 50.8-4.2 53.7-4.2Q53.59-4.45 53.45-4.7L53.45-4.7 48.14-4.7 47.84-5.45 51.2-5.45 51.05-5.95 53.49-5.95 53.2-6.95 46.95-6.95 46.8-7.45 46.7-7.45Q46.59-7.75 46.59-7.95L46.59-7.95 48.55-7.95Q48.49-8.2 48.45-8.45 48.39-8.7 48.34-8.95L48.34-8.95 51.34-8.95Q51.3-9.05 51.3-9.2 51.3-9.35 51.3-9.45L51.3-9.45 49.74-9.45Q49.74-9.65 49.72-9.83 49.7-10 49.7-10.2L49.7-10.2 48.7-10.2Q48.7-10.4 48.7-10.58 48.7-10.75 48.64-10.95L48.64-10.95 48.55-10.95 48.55-11.2Q48.55-11.4 48.52-11.58 48.49-11.75 48.49-11.95L48.49-11.95 47.74-11.95Q47.7-12.15 47.7-12.33 47.7-12.5 47.7-12.7L47.7-12.7 48.64-12.7 48.64-13.7 48.89-13.7 48.89-13.95 48.99-13.95 48.99-14.95 50.05-14.95 50.05-15Q50.05-15.25 50.05-15.5 50.05-15.75 50.09-15.95L50.09-15.95 47.39-15.95Q47.45-16.15 47.45-16.32 47.45-16.5 47.49-16.7L47.49-16.7 49.59-16.7 49.59-16.95 49.7-16.95Q49.74-17.05 49.74-17.2 49.74-17.35 49.8-17.45L49.8-17.45 49.95-17.45 50.09-18.2 48.99-18.2 49.09-18.45 48.95-18.45Q48.99-18.65 49.05-18.82 49.09-19 49.14-19.2L49.14-19.2 49.45-19.2Q49.55-19.45 49.62-19.73 49.7-20 49.8-20.2L49.8-20.2 49.7-20.2 49.8-20.45Q49.89-20.7 50.02-20.98 50.14-21.25 50.3-21.45L50.3-21.45 50.74-22.2 50.24-22.2 50.59-22.7 49.95-22.7Q50.14-22.9 50.34-23.2L50.34-23.2 52.09-23.2Q52.2-23.3 52.32-23.45 52.45-23.6 52.59-23.7L52.59-23.7 50.84-23.7Q51.2-24.05 51.39-24.2L51.39-24.2 52.95-24.2Q53.49-24.65 53.99-24.95L53.99-24.95 53.45-24.95Q54.45-25.55 55.59-25.95L55.59-25.95 54.84-25.95Q56.64-26.5 58.49-26.5L58.49-26.5Q60.39-26.5 62.05-25.95L62.05-25.95 62.8-25.95Q63.89-25.6 64.84-24.95L64.84-24.95 67.5-24.95 67.5-25.95 66.39-25.95 66.39-26.95 67.89-26.95 67.89-27.7 67.84-27.7 67.84-28.7 65.64-28.7 65.64-29.2 66.09-29.2 66.09-29.7 66.44-29.7 66.44-29.95 66.14-29.95 66.14-30.2 66-30.2 66-30.45 65.94-30.45 65.94-30.7 65.8-30.7 65.8-30.95 65.69-30.95 65.69-31.95 64.64-31.95 64.64-32.95 65.8-32.95 65.8-33.2 65.94-33.2 65.94-34.2Q65.94-34.4 66.05-34.7L66.05-34.7 66.55-34.7Q66.89-35.5 67.8-35.5L67.8-35.5 77.05-35.5Q77.94-35.5 78.3-34.7L78.3-34.7 77.75-34.7Q77.89-34.5 77.89-34.15L77.89-34.15 77.89-33.2 77.75-33.2 77.75-32.95 76.59-32.95 76.59-31.95 77.64-31.95 77.64-30.95 77.75-30.95 77.75-30.7 77.89-30.7 77.89-30.45 77.94-30.45 77.94-30.2 78.09-30.2 78.09-29.95 78.39-29.95 78.39-29.7 78.05-29.7 78.05-29.2 77.59-29.2 77.59-28.7 79.8-28.7 79.8-27.7 79.84-27.7 79.84-26.95 78.34-26.95 78.34-25.95 79.44-25.95 79.44-24.95 77.05-24.95 77.05-24.2 76.8-24.2 76.8-23.7 78.55-23.7 78.55-23.2 76.8-23.2 76.8-22.7 77.39-22.7 77.39-22.2 77.94-22.2 77.94-21.45 77.89-21.45 77.89-20.2 78-20.2 78-19.2 77.69-19.2 77.69-18.45 77.8-18.45 77.8-18.2 78.89-18.2 78.89-17.45 80.09-17.45 80.09-16.95 78.69-16.95 78.69-16.7 77.8-16.7 77.8-15.95 78.75-15.95 78.75-14.95 75.69-14.95 75.69-13.95 76.05-13.95 76.05-13.7 77.55-13.7 77.55-13.45 78-13.45 78-12.7 77.5-12.7 77.5-11.95 78.19-11.95 78.19-11.2 78.25-11.2 78.25-10.95 77.69-10.95 77.69-10.2 78.09-10.2 78.09-9.45 82.34-9.45 82.34-8.95 77.39-8.95ZM62.39-9.45L63.89-9.45Q64-9.3 64.09-9.18 64.19-9.05 64.3-8.95L64.3-8.95 61.3-8.95Q61.89-8.45 62.95-8.45L62.95-8.45Q63.95-8.45 64.59-8.95L64.59-8.95 69.55-8.95Q69.64-9.05 69.77-9.18 69.89-9.3 69.94-9.45L69.94-9.45 65.69-9.45Q65.84-9.75 66-10.2L66-10.2 65.59-10.2Q65.64-10.4 65.67-10.58 65.69-10.75 65.69-10.95L65.69-10.95 66.3-10.95 66.3-11.2 66.25-11.2 66.25-11.35Q66.25-11.5 66.25-11.65 66.25-11.8 66.3-11.95L66.3-11.95 65.59-11.95 65.59-12.7 66.09-12.7 66.09-13.45 65.69-13.45 65.69-13.7 64.14-13.7 64.14-13.95 63.84-13.95Q63.8-14.2 63.8-14.45 63.8-14.7 63.75-14.95L63.75-14.95 66.8-14.95 66.8-15.05Q66.75-15.6 66.64-15.95L66.64-15.95 65.69-15.95Q65.55-16.45 65.34-16.7L65.34-16.7 66.25-16.7Q66.19-16.8 66.05-16.95L66.05-16.95 67.44-16.95Q67.09-17.3 66.55-17.45L66.55-17.45 65.34-17.45Q65.14-17.5 64.92-17.53 64.69-17.55 64.44-17.55L64.44-17.55Q64.19-17.55 64-17.53 63.8-17.5 63.59-17.45L63.59-17.45 63.45-17.45Q62.89-17.3 62.55-16.95L62.55-16.95 62.45-16.95Q62.39-16.85 62.24-16.7L62.24-16.7 60.2-16.7Q59.99-16.45 59.84-15.95L59.84-15.95 62.49-15.95Q62.45-15.75 62.39-15.48 62.34-15.2 62.3-14.95L62.3-14.95 61.3-14.95 61.3-14.65Q61.24-14.5 61.24-14.33 61.24-14.15 61.2-13.95L61.2-13.95 61.09-13.95 61.09-13.7 60.89-13.7 60.89-13.45Q60.84-13.1 60.89-12.7L60.89-12.7 59.95-12.7 59.95-11.95 60.74-11.95Q60.74-11.8 60.74-11.65 60.74-11.5 60.8-11.35L60.8-11.35 60.8-11.2Q60.84-11.1 60.84-10.95L60.84-10.95 60.95-10.95 61.09-10.2 62.09-10.2Q62.2-9.75 62.39-9.45L62.39-9.45ZM116.54-13.7L107.84-13.7 107.84-13.2 114.19-13.2 114.19-12.7 110.34-12.7 110.34-12.2 108.54-12.2 108.54-11.7 110.09-11.7 110.09-11.4Q110.09-11.1 110.04-10.95L110.04-10.95 110.74-10.95Q110.39-10.05 109.44-10.05L109.44-10.05 94.54-10.05 94.54-9.95 96.54-9.95 96.54-9.8Q96.54-9.6 96.54-9.38 96.54-9.15 96.59-8.95L96.59-8.95 93.89-8.95Q93.89-8.8 93.92-8.68 93.94-8.55 93.94-8.45L93.94-8.45 93.64-8.45Q93.64-8.25 93.74-7.95L93.74-7.95 93.94-7.95Q94.19-7.25 94.74-6.95L94.74-6.95 93.39-6.95Q93.74-6.75 94.34-6.75L94.34-6.75Q94.74-6.75 94.99-6.95L94.99-6.95 97.34-6.95Q97.54-7.05 97.72-7.25 97.89-7.45 98.14-7.65L98.14-7.65 98.44-7.95 97.49-7.95Q97.94-8.35 98.84-8.35L98.84-8.35 108.29-8.35Q108.89-8.35 109.19-7.95L109.19-7.95 110.09-7.95Q110.34-7.6 110.34-7.25L110.34-7.25Q110.29-7.15 110.29-6.95L110.29-6.95 107.94-6.95Q107.84-6.45 107.64-5.95L107.64-5.95 105.19-5.95Q105.04-5.7 104.94-5.45L104.94-5.45 111.14-5.45Q111.04-5.2 110.87-4.95 110.69-4.7 110.49-4.45L110.49-4.45 108.99-4.45Q108.79-4.15 108.59-3.95L108.59-3.95 108.94-3.95Q108.89-3.9 108.84-3.85 108.79-3.8 108.74-3.7L108.74-3.7 105.94-3.7 105.69-3.45 106.54-3.45Q106.49-3.4 106.42-3.35 106.34-3.3 106.29-3.2L106.29-3.2 107.84-3.2Q107.49-2.85 106.94-2.45L106.94-2.45 106.19-2.45Q106.14-2.4 106.04-2.35 105.94-2.3 105.84-2.2L105.84-2.2 105.29-2.2Q104.49-1.65 103.54-1.2L103.54-1.2 102.89-1.2Q102.29-0.9 101.62-0.65 100.94-0.4 100.19-0.2L100.19-0.2 99.39-0.2Q98.84-0.05 98.24 0.08 97.64 0.2 96.94 0.3L96.94 0.3 99.04 0.3Q98.34 0.4 97.59 0.45 96.84 0.5 95.99 0.5L95.99 0.5Q95.19 0.5 94.39 0.45 93.59 0.4 92.84 0.3L92.84 0.3 90.74 0.3Q90.09 0.2 89.49 0.08 88.89-0.05 88.29-0.2L88.29-0.2 89.09-0.2Q87.74-0.55 86.54-1.2L86.54-1.2 87.19-1.2Q86.29-1.7 85.64-2.2L85.64-2.2 86.19-2.2Q86.09-2.3 86.02-2.35 85.94-2.4 85.84-2.45L85.84-2.45 86.59-2.45Q86.39-2.65 86.19-2.83 85.99-3 85.79-3.2L85.79-3.2 84.19-3.2 83.94-3.45 83.09-3.45Q83.04-3.55 82.99-3.6 82.94-3.65 82.89-3.7L82.89-3.7 85.64-3.7Q85.59-3.8 85.44-3.95L85.44-3.95 85.09-3.95Q84.99-4.05 84.89-4.2 84.79-4.35 84.69-4.45L84.69-4.45 86.19-4.45Q86.04-4.7 85.89-4.95 85.74-5.2 85.59-5.45L85.59-5.45 79.34-5.45Q79.19-5.7 79.09-5.95L79.09-5.95 81.54-5.95 81.09-6.95 82.44-6.95Q82.34-7.2 82.27-7.45 82.19-7.7 82.09-7.95L82.09-7.95 81.94-7.95 81.79-8.45 82.14-8.45 81.99-8.95 84.69-8.95Q84.64-9.2 84.59-9.45 84.54-9.7 84.49-9.95L84.49-9.95 82.49-9.95 82.39-10.95 81.69-10.95Q81.69-11.15 81.67-11.33 81.64-11.5 81.64-11.7L81.64-11.7 80.09-11.7 80.09-12.2 81.84-12.2 81.84-12.7 85.69-12.7 85.69-13.2 79.34-13.2 79.34-13.3Q79.34-13.55 79.39-13.7L79.39-13.7 88.04-13.7Q88.04-13.9 88.07-14.08 88.09-14.25 88.09-14.45L88.09-14.45 80.14-14.45Q80.14-14.55 80.17-14.6 80.19-14.65 80.19-14.7L80.19-14.7 83.49-14.7Q83.49-14.85 83.54-14.95L83.54-14.95 87.24-14.95 87.24-15.2 80.19-15.2Q80.24-15.45 80.29-15.7 80.34-15.95 80.39-16.2L80.39-16.2 82.29-16.2Q82.29-16.4 82.39-16.7L82.39-16.7 80.74-16.7Q80.74-16.8 80.77-16.85 80.79-16.9 80.79-16.95L80.79-16.95 81.99-16.95Q81.99-17.05 82.02-17.1 82.04-17.15 82.04-17.2L82.04-17.2 80.79-17.2 80.89-17.45 82.09-17.45 82.24-17.95 83.19-17.95 83.49-18.7 82.59-18.7Q82.69-18.95 82.79-19.23 82.89-19.5 83.04-19.7L83.04-19.7 82.89-19.7 82.99-19.95 81.74-19.95Q81.84-20.15 81.84-20.2L81.84-20.2 80.69-20.2 80.99-20.7 83.44-20.7Q83.49-20.8 83.64-20.95L83.64-20.95 84.54-20.95Q84.74-21.2 84.92-21.48 85.09-21.75 85.29-21.95L85.29-21.95 84.39-21.95Q84.54-22.15 84.72-22.33 84.89-22.5 85.09-22.7L85.09-22.7 87.04-22.7 87.54-23.2 84.59-23.2Q85.24-23.75 85.89-24.2L85.89-24.2 88.64-24.2 89.04-24.45 88.14-24.45Q88.54-24.7 89.09-24.95L89.09-24.95 91.04-24.95Q92.39-25.6 93.84-25.95L93.84-25.95 91.04-25.95Q92.14-26.2 93.34-26.35 94.54-26.5 95.84-26.5L95.84-26.5Q97.14-26.5 98.29-26.35 99.44-26.2 100.49-25.95L100.49-25.95 103.24-25.95Q103.99-25.75 104.67-25.5 105.34-25.25 105.99-24.95L105.99-24.95 104.04-24.95Q104.29-24.85 104.52-24.73 104.74-24.6 104.94-24.45L104.94-24.45 105.84-24.45Q105.94-24.4 106.04-24.35 106.14-24.3 106.24-24.2L106.24-24.2 103.49-24.2Q104.14-23.75 104.79-23.2L104.79-23.2 107.79-23.2 108.29-22.7 106.34-22.7Q106.54-22.5 106.72-22.33 106.89-22.15 107.04-21.95L107.04-21.95 107.94-21.95Q108.14-21.75 108.32-21.48 108.49-21.2 108.69-20.95L108.69-20.95 107.74-20.95Q107.79-20.85 107.94-20.7L107.94-20.7 105.44-20.7 105.74-20.2 106.89-20.2 107.04-19.95 108.34-19.95Q108.34-19.9 108.44-19.7L108.44-19.7 108.59-19.7 109.04-18.7 109.34-17.95 109.39-17.95 109.54-17.45 108.94-17.45 109.04-17.2 109.49-17.2 109.59-16.95 110.39-16.95Q110.39-16.9 110.42-16.85 110.44-16.8 110.44-16.7L110.44-16.7 110.04-16.7 110.19-16.2 108.29-16.2 108.44-15.2 115.49-15.2 115.49-14.95 111.79-14.95Q111.79-14.9 111.82-14.85 111.84-14.8 111.84-14.7L111.84-14.7 108.49-14.7Q108.54-14.6 108.54-14.45L108.54-14.45 116.49-14.45Q116.49-14.25 116.49-14.08 116.49-13.9 116.54-13.7L116.54-13.7ZM93.84-16.95L92.64-16.95 92.64-16.7 94.24-16.7 94.24-16.3 98.24-16.3 98.24-16.7 98.59-16.7 98.59-16.95 97.79-16.95 97.79-17.2 97.29-17.2Q97.29-17.35 97.24-17.45L97.24-17.45 97.84-17.45Q97.84-17.65 97.74-17.95L97.74-17.95 97.69-17.95Q97.64-18.4 97.39-18.7L97.39-18.7Q96.89-19.5 95.84-19.5L95.84-19.5Q94.84-19.5 94.34-18.7L94.34-18.7 95.24-18.7Q95.04-18.4 94.94-17.95L94.94-17.95 93.94-17.95Q93.94-17.85 93.92-17.73 93.89-17.6 93.84-17.45L93.84-17.45 92.64-17.45Q92.64-17.3 92.59-17.2L92.59-17.2 93.84-17.2 93.84-16.95ZM137.49-15.95L137.19-15.2 145.84-15.2 145.64-14.7 142.99-14.7 142.89-14.45 137.39-14.45 137.09-13.7 138.34-13.7 138.24-13.45 137.74-13.45 137.54-12.95 137.14-12.95 137.04-12.7 138.39-12.7 138.14-12.2 134.14-12.2 133.84-11.45 134.14-11.45 134.04-11.2 130.49-11.2 130.09-10.2 137.89-10.2 137.49-9.2 129.09-9.2 128.69-8.2 130.69-8.2 130.59-7.95 135.79-7.95 135.59-7.45 135.04-7.45 134.74-6.7 130.49-6.7 130.39-6.45 133.99-6.45 133.69-5.7 134.79-5.7 134.59-5.2 133.99-5.2 133.59-4.2 133.99-4.2 133.49-2.95 133.44-2.95 133.34-2.7 133.24-2.7 133.04-2.2 133.09-2.2 132.89-1.7 133.24-1.7 133.09-1.45 131.84-1.45 131.79-1.25Q131.74-1.25 131.74-1.23 131.74-1.2 131.74-1.2L131.74-1.2 131.84-1.2 131.54-0.7 132.29-0.7Q132.09-0.4 131.79-0.2L131.79-0.2 131.39-0.2Q131.24-0.15 131.04-0.08 130.84 0 130.59 0L130.59 0 122.59 0Q122.34 0 122.14-0.08 121.94-0.15 121.74-0.2L121.74-0.2 122.14-0.2Q121.84-0.4 121.59-0.7L121.59-0.7 120.89-0.7Q120.79-0.8 120.74-0.95 120.69-1.1 120.59-1.2L120.59-1.2 120.49-1.2 120.49-1.25 120.39-1.45 121.64-1.45 121.54-1.7 121.19-1.7 120.99-2.2 120.94-2.2 120.74-2.7 120.84-2.7 120.64-3.2 120.69-3.2 120.49-3.7 120.44-3.7 120.24-4.2 119.84-4.2 119.44-5.2 119.99-5.2 119.79-5.7 118.69-5.7 118.39-6.45 114.79-6.45 114.69-6.7 118.89-6.7 118.59-7.45 119.19-7.45 118.94-7.95 113.74-7.95 113.64-8.2 111.64-8.2 111.19-9.2 119.64-9.2 119.19-10.2 111.34-10.2 110.94-11.2 114.49-11.2 114.39-11.45 114.09-11.45 113.79-12.2 117.79-12.2 117.59-12.7 116.29-12.7 116.19-12.95 116.54-12.95 116.34-13.45 116.54-13.45 116.44-13.7 113.84-13.7 113.54-14.45 114.84-14.45 114.74-14.7 111.69-14.7 111.49-15.2 115.79-15.2 115.49-15.95 115.14-15.95 114.94-16.45 115.19-16.45 114.99-16.95 112.74-16.95 112.64-17.2 115.74-17.2 115.64-17.45 114.54-17.45 114.44-17.7 114.34-17.7 113.94-18.7 115.14-18.7 114.84-19.45 112.59-19.45 112.39-19.95 113.69-19.95 113.49-20.45 113.39-20.45 112.99-21.45 112.84-21.45 112.74-21.7 112.59-21.7 112.49-21.95 112.84-21.95 112.74-22.2 112.99-22.2 112.69-22.95 112.59-22.95 112.49-23.2 111.94-23.2 111.54-24.2 112.54-24.2 112.44-24.45Q112.39-24.55 112.39-24.7L112.39-24.7 112.59-24.7 112.59-24.8Q112.59-25.35 113.04-25.7L113.04-25.7 111.64-25.7Q111.94-26 112.39-26L112.39-26 120.84-26Q121.54-26 121.89-25.7L121.89-25.7 123.24-25.7Q123.49-25.5 123.67-25.28 123.84-25.05 123.89-24.8L123.89-24.8 123.94-24.7 123.69-24.7 123.89-24.2 122.89-24.2 123.24-23.2 123.79-23.2 123.84-22.95 123.94-22.95 124.19-22.2 123.94-22.2 124.04-21.95 123.69-21.95 123.79-21.7 123.94-21.7 123.99-21.45 124.14-21.45 124.49-20.45 124.59-20.45 124.74-19.95 123.44-19.95 123.59-19.45 125.84-19.45 126.09-18.7 124.89-18.7 125.24-17.7 125.34-17.7 125.44-17.45 126.54-17.45 126.64-17.2 123.54-17.2 123.59-16.95 125.84-16.95 126.04-16.45 125.74-16.45 125.94-15.95 126.24-15.95 126.49-15.3 126.69-15.95 128.14-15.95 128.29-16.45 128.44-16.45 128.59-16.95 127.59-16.95 127.64-17.2 129.09-17.2 129.19-17.45 128.54-17.45 128.59-17.7 127.59-17.7 127.94-18.7 130.79-18.7 131.04-19.45 130.14-19.45 130.34-19.95 129.34-19.95 129.49-20.45 131.99-20.45 132.34-21.45 127.89-21.45 127.99-21.7 129.49-21.7 129.59-21.95 128.79-21.95 128.89-22.2 130.59-22.2 130.84-22.95 130.39-22.95 130.49-23.2 130.04-23.2 130.39-24.2 131.39-24.2 131.54-24.7 131.84-24.7 131.84-24.8Q131.94-25.05 132.09-25.28 132.24-25.5 132.49-25.7L132.49-25.7 131.74-25.7Q132.14-26 132.74-26L132.74-26 141.19-26Q141.64-26 141.99-25.7L141.99-25.7 142.74-25.7Q143.14-25.4 143.14-24.8L143.14-24.8 143.14-24.7 142.89-24.7Q142.89-24.65 142.87-24.6 142.84-24.55 142.84-24.45L142.84-24.45 142.74-24.2 141.74-24.2 141.34-23.2 141.79-23.2 141.69-22.95 142.09-22.95 141.79-22.2 140.09-22.2 139.99-21.95 140.79-21.95 140.69-21.7 139.14-21.7 139.04-21.45 143.49-21.45 143.09-20.45 140.59-20.45 140.39-19.95 141.39-19.95 141.19-19.45 142.09-19.45 141.74-18.7 138.94-18.7 138.49-17.7 139.49-17.7 139.39-17.45 140.09-17.45 139.99-17.2 138.49-17.2 138.39-16.95 139.44-16.95 139.24-16.45 139.09-16.45 138.89-15.95 137.49-15.95ZM132.24-14.45L132.29-14.7 134.94-14.7 135.14-15.2 122.19-15.2 122.39-14.7 125.39-14.7 125.49-14.45 124.19-14.45 124.44-13.7 126.44-13.7 126.74-14.45 132.24-14.45ZM127.14-13.45L127.64-13.45 127.74-13.7 127.04-13.7 127.14-13.45 126.94-13.45 127.04-13.15 127.14-13.45Z" opacity="1" transform="matrix(1,0,0,1,0,0)" fill="#a36de5" class="wordmark-text-0" data-fill-palette-color="primary" id="text-0"></path></svg></g></svg></g></svg></g></svg></g><g transform="matrix(1,0,0,1,220.09122495212037,0)"><svg viewBox="0 0 112.79736000000003 112.79736000000003" height="112.79736000000003" width="112.79736000000003"><g><svg></svg></g><g id="icon-0"><svg viewBox="0 0 112.79736000000003 112.79736000000003" height="112.79736000000003" width="112.79736000000003"><g><rect width="102.56204400000001" height="102.56204400000001" x="5.117658000000006" y="5.117658000000006" fill="#371f76" data-fill-palette-color="accent"></rect><rect width="102.56204400000001" height="102.56204400000001" x="5.329070518200751e-15" y="5.329070518200751e-15" fill="#371f76" opacity="0.5" data-fill-palette-color="accent"></rect></g><g transform="matrix(1,0,0,1,14.621880000000004,37.36118295540179)"><svg viewBox="0 0 83.55360000000002 38.07499408919645" height="38.07499408919645" width="83.55360000000002"><g><svg xmlns="http://www.w3.org/2000/svg" xmlns:xlink="http://www.w3.org/1999/xlink" version="1.1" x="0" y="0" viewBox="5 29.49391886595174 90 41.01258914071542" enable-background="new 0 0 100 100" xml:space="preserve" height="38.07499408919645" width="83.55360000000002" class="icon-dxe-0" data-fill-palette-color="quaternary" id="dxe-0"><g fill="#dce2f7" data-fill-palette-color="quaternary"><path d="M23.943 30.807L5 50.001 23.942 69.193A4.386 4.386 0 0 0 30.2 69.195 4.52 4.52 0 0 0 30.202 62.857L18.193 50.695 14.569 52.984 30.203 37.143A4.5 4.5 0 0 0 31.498 33.975 4.5 4.5 0 0 0 30.201 30.805 4.387 4.387 0 0 0 23.943 30.807" fill="#dce2f7" data-fill-palette-color="quaternary"></path><path d="M76.057 30.808L95 50.001 76.058 69.193A4.386 4.386 0 0 1 69.8 69.195 4.52 4.52 0 0 1 69.798 62.857L81.807 50.696 85.431 52.985 69.796 37.144A4.5 4.5 0 0 1 68.501 33.976 4.5 4.5 0 0 1 69.798 30.806 4.386 4.386 0 0 1 76.057 30.808" fill="#dce2f7" data-fill-palette-color="quaternary"></path><path d="M60.899 32.352A4.5 4.5 0 0 0 58.533 29.876 4.386 4.386 0 0 0 52.708 32.164L38.888 64.226A4.5 4.5 0 0 0 38.84 67.648 4.5 4.5 0 0 0 41.206 70.124 4.386 4.386 0 0 0 47.031 67.836L60.851 35.774A4.5 4.5 0 0 0 60.899 32.352" fill="#dce2f7" data-fill-palette-color="quaternary"></path></g></svg></g></svg></g></svg></g></svg></g></svg></g></svg></g></svg></g><defs></defs></svg><rect width="320" height="360" fill="none" stroke="none" visibility="hidden"></rect></g></svg></g></svg>